<?xml version="1.0" encoding="UTF-8" standalone="no"?>
<!-- Created with Inkscape (http://www.inkscape.org/) -->

<svg
   width="100mm"
   height="100mm"
   viewBox="0 0 100 100"
   version="1.1"
   id="svg5"
   xml:space="preserve"
   inkscape:version="1.2.1 (9c6d41e410, 2022-07-14, custom)"
   sodipodi:docname="pykerio.svg"
   xmlns:inkscape="http://www.inkscape.org/namespaces/inkscape"
   xmlns:sodipodi="http://sodipodi.sourceforge.net/DTD/sodipodi-0.dtd"
   xmlns="http://www.w3.org/2000/svg"
   xmlns:svg="http://www.w3.org/2000/svg"><sodipodi:namedview
     id="namedview7"
     pagecolor="#ffffff"
     bordercolor="#666666"
     borderopacity="1.0"
     inkscape:showpageshadow="2"
     inkscape:pageopacity="0.0"
     inkscape:pagecheckerboard="0"
     inkscape:deskcolor="#d1d1d1"
     inkscape:document-units="mm"
     showgrid="false"
     inkscape:zoom="1.4948513"
     inkscape:cx="260.22655"
     inkscape:cy="149.17872"
     inkscape:window-width="1920"
     inkscape:window-height="1011"
     inkscape:window-x="0"
     inkscape:window-y="32"
     inkscape:window-maximized="1"
     inkscape:current-layer="layer1" /><defs
     id="defs2" /><g
     inkscape:label="Livello 1"
     inkscape:groupmode="layer"
     id="layer1"
     style="display:inline"><rect
       style="fill:#e63c2e;fill-opacity:1;stroke:none;stroke-width:0.159;stroke-linejoin:bevel;stroke-dasharray:none;stroke-opacity:1"
       id="rect2240"
       width="94.359093"
       height="95.057983"
       x="2.6634383"
       y="2.8971722"
       rx="9.2199764"
       ry="8.2912092" /><circle
       id="path6158"
       style="fill:#ed333b;stroke:#000000;stroke-width:0.264583"
       cx="18.554554"
       cy="28.287985"
       r="0.014035042" /><path
       style="fill:#ffffff;fill-opacity:1;stroke-width:0.191576"
       d="M 47.459628,77.837521 C 43.869273,75.256301 39.892474,71.608069 36.739332,68.00294 33.805707,64.648802 30.071639,59.471906 28.310163,56.316789 27.957209,55.684587 27.498591,54.865598 27.291008,54.496814 24.791592,50.056471 22.43924,44.135615 21.506409,39.937018 c -0.175572,-0.790252 -0.394762,-1.781659 -0.487087,-2.203126 -0.610549,-2.787218 -0.669568,-7.032141 -0.100806,-7.250396 0.140788,-0.05403 0.889815,-0.150136 1.664503,-0.21358 6.787643,-0.555874 12.980204,-1.728597 18.363017,-3.477515 0.790255,-0.256759 1.609243,-0.542108 1.819975,-0.634108 0.210733,-0.092 0.727993,-0.311211 1.149458,-0.487129 1.258335,-0.525228 1.642135,-0.720382 3.511656,-1.785629 l 1.78747,-1.018492 0.70302,0.422717 c 5.025544,3.021776 10.438016,4.797826 18.615405,6.108467 2.02584,0.324694 3.859383,0.543715 7.663048,0.915374 l 1.436826,0.140393 -0.0082,3.161008 c -0.0051,1.862729 -0.108958,3.593767 -0.253547,4.214678 -0.831316,3.569939 -1.071388,4.483876 -1.585159,6.034652 -0.314172,0.948302 -0.643268,1.896605 -0.731329,2.107338 -0.08805,0.210734 -0.351101,0.857305 -0.58454,1.436822 -2.472735,6.138449 -6.836706,13.466695 -10.895004,18.295534 -0.531321,0.632201 -1.206471,1.469868 -1.500341,1.861482 -0.836516,1.114755 -6.497553,6.654764 -8.19736,8.022104 -1.452965,1.168783 -4.57978,3.436895 -4.722782,3.42579 -0.03664,-0.0029 -0.799401,-0.53199 -1.695022,-1.175881 z m 4.083743,-9.958444 C 60.280957,59.686425 67.501585,47.944431 69.750996,38.270316 l 0.276182,-1.18776 -0.98655,-0.188357 c -0.542602,-0.103597 -1.417595,-0.242608 -1.944433,-0.308915 -1.075994,-0.135425 -5.339558,-0.966749 -6.51359,-1.270043 -0.421466,-0.108881 -1.068037,-0.273952 -1.436819,-0.366827 -2.489795,-0.62703 -6.597061,-2.075517 -8.764617,-3.090967 l -1.197354,-0.560932 -1.293134,0.597925 c -0.71123,0.32886 -1.465564,0.666566 -1.676297,0.75046 -0.210732,0.08389 -0.598673,0.243166 -0.86209,0.353941 -1.980846,0.833003 -6.955194,2.24499 -10.249332,2.909313 -2.354503,0.474828 -2.896518,0.571476 -3.831528,0.683216 -2.207987,0.263868 -2.990365,0.486629 -2.888828,0.82252 0.05322,0.176002 0.181256,0.664839 0.284552,1.086307 0.463526,1.891234 1.159174,4.130905 1.547107,4.980982 0.09617,0.210734 0.453904,1.072828 0.794969,1.915763 1.759687,4.349043 5.320008,10.384318 8.691558,14.733494 2.67948,3.456429 8.830276,9.693553 9.557892,9.692034 0.116871,-1.91e-4 1.144983,-0.874771 2.284687,-1.943393 z"
       id="path21578"
       sodipodi:nodetypes="ssscscscsssscsssccssccssscscscssscscsscssccssscc" /><text
       xml:space="preserve"
       style="font-style:normal;font-weight:normal;font-size:31.75px;line-height:125%;font-family:Sans;letter-spacing:0px;word-spacing:0px;fill:#000000;fill-opacity:1;stroke:none;stroke-width:0.264583px;stroke-linecap:butt;stroke-linejoin:miter;stroke-opacity:1"
       x="4.447979"
       y="20.15246"
       id="text21909"><tspan
         sodipodi:role="line"
         id="tspan21907"
         style="font-style:normal;font-variant:normal;font-weight:500;font-stretch:normal;font-size:31.75px;font-family:Flux;-inkscape-font-specification:'Flux Medium';stroke-width:0.264583px"
         x="4.447979"
         y="20.15246">py</tspan></text></g></svg>
